STARTFONT 2.1
FONT -FontForge-Fayette Handwritten Script-Book-R-Normal--48-460-75-75-P-177-ISO10646-1
SIZE 46 75 75
FONTBOUNDINGBOX 63 49 -15 -22
COMMENT "Generated by fontforge, http://fontforge.sourceforge.net"
COMMENT "Mia Cinelli, 2012"
STARTPROPERTIES 39
FOUNDRY "FontForge"
FAMILY_NAME "Fayette Handwritten Script"
WEIGHT_NAME "Book"
SLANT "R"
SETWIDTH_NAME "Normal"
ADD_STYLE_NAME ""
PIXEL_SIZE 48
POINT_SIZE 460
RESOLUTION_X 75
RESOLUTION_Y 75
SPACING "P"
AVERAGE_WIDTH 177
CHARSET_REGISTRY "ISO10646"
CHARSET_ENCODING "1"
FONTNAME_REGISTRY ""
CHARSET_COLLECTIONS "ISO10646-1"
FONT_NAME "Fayette-HandwrittenScript"
FACE_NAME "Fayette Handwritten Script Regular"
COPYRIGHT "Mia Cinelli, 2012"
FONT_VERSION "0.000;PS 0.0;hotconv 1.0.72;makeotf.lib2.5.5900 DEVELOPMENT"
FONT_ASCENT 26
FONT_DESCENT 22
UNDERLINE_POSITION -4
UNDERLINE_THICKNESS 2
X_HEIGHT 8
CAP_HEIGHT 21
RAW_ASCENT 551
RAW_DESCENT 448
NORM_SPACE 11
RELATIVE_WEIGHT 40
RELATIVE_SETWIDTH 50
SUPERSCRIPT_X 0
SUPERSCRIPT_Y 16
SUPERSCRIPT_SIZE 28
SUBSCRIPT_X 0
SUBSCRIPT_Y 3
SUBSCRIPT_SIZE 28
AVG_LOWERCASE_WIDTH 124
AVG_UPPERCASE_WIDTH 208
ENDPROPERTIES
CHARS 207
STARTCHAR space
ENCODING 32
SWIDTH 227 0
DWIDTH 11 0
BBX 1 1 0 0
BITMAP
00
ENDCHAR
STARTCHAR exclam
ENCODING 33
SWIDTH 330 0
DWIDTH 16 0
BBX 19 22 8 0
BITMAP
000060
0000E0
0001C0
000380
000300
000600
000C00
001800
003800
007000
00E000
00C000
018000
030000
060000
0C0000
180000
100000
000000
000000
C00000
800000
ENDCHAR
STARTCHAR quotedbl
ENCODING 34
SWIDTH 102 0
DWIDTH 5 0
BBX 4 4 9 18
BITMAP
90
90
90
90
ENDCHAR
STARTCHAR numbersign
ENCODING 35
SWIDTH 493 0
DWIDTH 24 0
BBX 18 17 4 1
BITMAP
000400
000C40
000880
001100
002300
004600
00CC00
3FFFC0
031000
022000
FFFE00
08C000
118000
330000
620000
440000
880000
ENDCHAR
STARTCHAR dollar
ENCODING 36
SWIDTH 578 0
DWIDTH 28 0
BBX 19 22 8 -3
BITMAP
000020
000040
0000C0
000180
003F00
006700
00C500
00C980
00D100
00F000
006000
00E000
00A000
212000
322000
342000
1C6000
1FC000
178000
200000
400000
800000
ENDCHAR
STARTCHAR percent
ENCODING 37
SWIDTH 452 0
DWIDTH 22 0
BBX 16 19 2 0
BITMAP
0001
0002
0006
380C
6418
6410
3C20
0040
0080
0180
0300
020C
0412
0812
101A
200C
6000
4000
8000
ENDCHAR
STARTCHAR ampersand
ENCODING 38
SWIDTH 408 0
DWIDTH 20 0
BBX 16 22 8 -3
BITMAP
00C0
03E0
0210
0410
0410
0430
0260
0380
0D00
3100
60F0
C198
C24C
C224
C024
C018
6018
3068
0F84
0002
0003
0001
ENDCHAR
STARTCHAR parenleft
ENCODING 40
SWIDTH 289 0
DWIDTH 14 0
BBX 20 27 7 -5
BITMAP
000070
0000C0
000300
000600
001800
003000
006000
00C000
018000
030000
020000
040000
0C0000
080000
100000
100000
200000
200000
600000
400000
400000
400000
800000
800000
800000
800000
800000
ENDCHAR
STARTCHAR parenright
ENCODING 41
SWIDTH 480 0
DWIDTH 23 0
BBX 21 26 3 -4
BITMAP
000008
000008
000010
000010
000010
000010
000020
000020
000060
000040
000040
000080
000180
000100
000200
000600
000400
000800
001000
002000
00C000
018000
030000
0C0000
300000
E00000
ENDCHAR
STARTCHAR asterisk
ENCODING 42
SWIDTH 363 0
DWIDTH 17 0
BBX 5 4 15 15
BITMAP
50
F8
60
50
ENDCHAR
STARTCHAR plus
ENCODING 43
SWIDTH 466 0
DWIDTH 22 0
BBX 11 8 6 4
BITMAP
0080
0180
0300
7FE0
FFE0
0C00
1800
1000
ENDCHAR
STARTCHAR comma
ENCODING 44
SWIDTH 116 0
DWIDTH 6 0
BBX 3 4 6 -2
BITMAP
20
60
20
C0
ENDCHAR
STARTCHAR hyphen
ENCODING 45
SWIDTH 299 0
DWIDTH 14 0
BBX 7 1 3 4
BITMAP
FE
ENDCHAR
STARTCHAR period
ENCODING 46
SWIDTH 150 0
DWIDTH 7 0
BBX 2 2 8 0
BITMAP
C0
80
ENDCHAR
STARTCHAR slash
ENCODING 47
SWIDTH 398 0
DWIDTH 19 0
BBX 18 21 8 0
BITMAP
000040
0000C0
000180
000100
000200
000400
000C00
001800
003000
002000
004000
008000
018000
030000
060000
0C0000
080000
100000
200000
600000
C00000
ENDCHAR
STARTCHAR zero
ENCODING 48
SWIDTH 263 0
DWIDTH 13 0
BBX 10 9 0 0
BITMAP
0E00
3F80
30C0
6040
E0C0
E080
E180
7700
3C00
ENDCHAR
STARTCHAR one
ENCODING 49
SWIDTH 181 0
DWIDTH 9 0
BBX 12 14 1 0
BITMAP
0030
0060
0040
0080
0180
0300
0600
0C00
1800
1000
2000
4000
C000
8000
ENDCHAR
STARTCHAR two
ENCODING 50
SWIDTH 262 0
DWIDTH 13 0
BBX 12 14 0 0
BITMAP
0200
0600
0FC0
1E40
1840
0080
0100
0300
0400
0800
1800
2C00
4730
81E0
ENDCHAR
STARTCHAR three
ENCODING 51
SWIDTH 247 0
DWIDTH 12 0
BBX 11 14 0 0
BITMAP
00C0
01E0
0020
0060
00C0
0180
6040
7040
D040
D0C0
D080
7180
7300
3C00
ENDCHAR
STARTCHAR four
ENCODING 52
SWIDTH 381 0
DWIDTH 18 0
BBX 18 20 0 -7
BITMAP
000040
0000C0
000180
000300
000600
000C00
000800
0C1000
0E3000
1C6000
18C000
318200
7FFC00
020000
040000
0C0000
180000
300000
600000
C00000
ENDCHAR
STARTCHAR five
ENCODING 53
SWIDTH 256 0
DWIDTH 12 0
BBX 17 13 -1 0
BITMAP
003000
003C00
004700
00C180
018000
03C000
024000
C04000
E04000
604000
608000
210000
1E0000
ENDCHAR
STARTCHAR six
ENCODING 54
SWIDTH 261 0
DWIDTH 13 0
BBX 10 14 1 0
BITMAP
00C0
0180
0300
0600
0C00
1800
3000
3000
6080
6740
C840
D040
6180
3E00
ENDCHAR
STARTCHAR seven
ENCODING 55
SWIDTH 219 0
DWIDTH 11 0
BBX 19 23 -7 -14
BITMAP
002000
003060
007FC0
00C080
008180
000300
000600
000C00
000800
001000
002000
006000
00C000
018000
010000
020000
060000
0C0000
180000
300000
700000
E00000
C00000
ENDCHAR
STARTCHAR eight
ENCODING 56
SWIDTH 282 0
DWIDTH 14 0
BBX 11 14 3 0
BITMAP
1F00
33C0
6120
6200
6400
3800
1800
3800
6C00
4C00
8C00
8C00
D800
7000
ENDCHAR
STARTCHAR nine
ENCODING 57
SWIDTH 254 0
DWIDTH 12 0
BBX 15 23 -5 -14
BITMAP
0038
00FC
0182
0302
0302
0706
0306
039C
01F8
0010
0030
0060
00C0
0080
0100
0300
0600
0C00
1800
3000
2000
6000
C000
ENDCHAR
STARTCHAR colon
ENCODING 58
SWIDTH 367 0
DWIDTH 18 0
BBX 3 9 11 0
BITMAP
40
E0
40
00
00
00
00
C0
C0
ENDCHAR
STARTCHAR semicolon
ENCODING 59
SWIDTH 276 0
DWIDTH 13 0
BBX 2 12 11 -3
BITMAP
40
C0
C0
00
00
00
00
C0
C0
40
40
80
ENDCHAR
STARTCHAR less
ENCODING 60
SWIDTH 367 0
DWIDTH 18 0
BBX 8 9 0 0
BITMAP
01
07
1C
70
80
E0
38
06
01
ENDCHAR
STARTCHAR equal
ENCODING 61
SWIDTH 516 0
DWIDTH 25 0
BBX 13 4 7 7
BITMAP
FFF8
0000
0000
03F0
ENDCHAR
STARTCHAR greater
ENCODING 62
SWIDTH 575 0
DWIDTH 28 0
BBX 8 9 4 0
BITMAP
80
E0
38
06
03
0E
38
E0
80
ENDCHAR
STARTCHAR question
ENCODING 63
SWIDTH 297 0
DWIDTH 14 0
BBX 14 21 9 0
BITMAP
03F0
0738
0C1C
080C
180C
180C
000C
0018
0070
00E0
0180
0300
0400
0C00
1800
1000
3000
0000
0000
C000
8000
ENDCHAR
STARTCHAR at
ENCODING 64
SWIDTH 536 0
DWIDTH 26 0
BBX 19 19 10 0
BITMAP
006000
07FE00
0E0300
180080
300040
600020
60FC20
418C20
C30820
C61820
C41060
C43040
C4DB80
638420
600040
300080
1C0300
0FDE00
01F800
ENDCHAR
STARTCHAR A
ENCODING 65
SWIDTH 519 0
DWIDTH 25 0
BBX 34 31 5 -9
BITMAP
00000000C0
00000001C0
00000002C0
0000000680
0000000D00
0000001A00
0000001400
0000003800
0000007000
000000E000
000001C000
0000038000
0000070000
00001E0000
0000360000
0030CC0000
000F980000
000F980000
E018700000
C0E0380000
C380600000
7C00400000
0000800000
0000800000
0001000000
0003000000
0002000000
0006000000
0004000000
0004000000
0008000000
ENDCHAR
STARTCHAR B
ENCODING 66
SWIDTH 469 0
DWIDTH 23 0
BBX 25 24 6 -2
BITMAP
0003E000
001E3C00
00700600
00C00700
03000D80
06000980
0C001180
18003180
10006300
3000C600
6000CC00
4001F800
40032000
C0062000
C0042000
C0E86000
C1B86000
C1304000
C130C000
61D18000
33970000
1F7C0000
00300000
00200000
ENDCHAR
STARTCHAR C
ENCODING 67
SWIDTH 455 0
DWIDTH 22 0
BBX 20 22 10 0
BITMAP
000F00
003080
00C040
0100C0
0201C0
060340
0C0640
180C40
301840
301880
603080
603180
602300
C03600
C03C00
C00010
C00060
6000C0
600180
300200
1C1C00
07E000
ENDCHAR
STARTCHAR D
ENCODING 68
SWIDTH 609 0
DWIDTH 29 0
BBX 28 22 8 0
BITMAP
00000040
000003F0
00000630
00000C10
00001810
00001010
00002010
18006030
20004030
6000C030
C0008060
C0388060
C0D18060
612180C0
3E6101C0
00E10180
03F08380
04B08300
09180600
120C1C00
1407F800
1801E000
ENDCHAR
STARTCHAR E
ENCODING 69
SWIDTH 427 0
DWIDTH 21 0
BBX 19 22 10 0
BITMAP
000600
001FE0
0030E0
006060
004000
006000
007000
01E000
070000
0C0000
180000
303800
60C400
E10400
C20400
C20420
C60840
C61980
C23E00
C1F000
618000
1E0000
ENDCHAR
STARTCHAR F
ENCODING 70
SWIDTH 427 0
DWIDTH 21 0
BBX 20 22 9 0
BITMAP
000380
000C60
003030
007010
00F810
00B8D0
0131D0
026310
026200
04C400
058880
071980
063F00
00F600
03C400
008800
610000
630000
E60000
CC0000
580000
700000
ENDCHAR
STARTCHAR G
ENCODING 71
SWIDTH 622 0
DWIDTH 30 0
BBX 26 22 9 0
BITMAP
00004000
0001E000
00032000
000320C0
000620C0
000661C0
00064140
0006C340
00028640
0003F8C0
00038080
00020080
00040180
000C0180
00180100
0C300300
07FF0700
E2C00600
E1801C00
C3C03800
CC7FE000
781F8000
ENDCHAR
STARTCHAR H
ENCODING 72
SWIDTH 430 0
DWIDTH 21 0
BBX 27 28 7 -6
BITMAP
00000040
000001A0
00000200
00000440
00000880
00781080
00883100
01086200
00184C00
0018D800
0010B000
0031C000
003F8000
007B0000
03660000
0C460000
30840000
618C0000
43080000
86080000
DC080000
70080000
00080000
00080000
00080000
00080000
00080000
00040000
ENDCHAR
STARTCHAR I
ENCODING 73
SWIDTH 356 0
DWIDTH 17 0
BBX 20 22 6 0
BITMAP
000010
000070
0000D0
000190
000330
000320
000640
000640
000480
000480
000500
003F00
004700
00C700
008F00
009800
003000
706000
E0C000
E38000
E60000
780000
ENDCHAR
STARTCHAR J
ENCODING 74
SWIDTH 302 0
DWIDTH 15 0
BBX 26 34 -5 -12
BITMAP
00003C00
00004600
00008600
00008200
00008300
00010300
00010300
00010300
00010300
00010300
00010300
00010300
00008200
00008600
00008600
00008700
0000FC00
0001CC00
000E4800
00185800
00607000
01802000
03006000
0600D000
08009000
10019000
20030800
60060800
400C0400
40380600
C0700200
C1C00100
67800080
7E000040
ENDCHAR
STARTCHAR K
ENCODING 75
SWIDTH 600 0
DWIDTH 29 0
BBX 44 27 0 -6
BITMAP
000000000030
000000000060
000000000180
000000000300
000000040600
0000000C1800
0000001C3000
000000386000
00000059C000
000001B30000
0000033E0000
00000C7C0000
000018EC0000
000060CC0000
0000818C0000
0003838C0000
000EC70C0000
70144E080000
E066DC080000
6187F8080000
3E01E0080000
000000080000
000000080000
000000080000
000000080000
0000000C0000
000000040000
ENDCHAR
STARTCHAR L
ENCODING 76
SWIDTH 434 0
DWIDTH 21 0
BBX 24 28 10 -7
BITMAP
00000F
00000D
000019
07C033
070066
07004E
0300F8
01FFC0
000100
000300
000600
000C00
001800
003000
006000
00C000
318000
FF0000
870000
DD8000
F04000
002000
001000
001800
000800
000400
000400
000200
ENDCHAR
STARTCHAR M
ENCODING 77
SWIDTH 611 0
DWIDTH 29 0
BBX 32 28 8 -6
BITMAP
00800606
03801F1F
060F3F1F
0E336333
0786C243
00058286
000A0504
001C0F0C
00180E18
00301C10
00603830
00C03060
00806040
0180C0C0
0301C180
06018100
0C030300
08060200
10040400
200C0C00
60180800
C0101800
00001800
00001000
00001000
00001800
00000800
00000400
ENDCHAR
STARTCHAR N
ENCODING 78
SWIDTH 530 0
DWIDTH 25 0
BBX 39 22 7 0
BITMAP
0180080080
07001801E0
0E1E38033E
0C66C80600
0F85900C00
000F101800
000E103000
001C202000
0038204000
007020C000
0060418000
00C0430000
0180C20000
0300840000
06008C0000
0401980000
0801300000
1001600000
3003400000
6002800000
C003000000
8002000000
ENDCHAR
STARTCHAR O
ENCODING 79
SWIDTH 483 0
DWIDTH 23 0
BBX 20 22 10 0
BITMAP
001F00
007FC0
01D860
033020
062010
0C6010
18C010
388010
318030
610030
610020
C10020
C10040
C10040
C00080
C00180
C00300
C00200
E00C00
701800
3DE000
0F8000
ENDCHAR
STARTCHAR P
ENCODING 80
SWIDTH 444 0
DWIDTH 21 0
BBX 24 22 7 0
BITMAP
0003C0
001C38
00620C
00C206
018606
010613
020C53
020C93
061903
043206
046606
03CC0C
010BB8
001000
003000
006000
704000
588000
998000
DB0000
7E0000
380000
ENDCHAR
STARTCHAR Q
ENCODING 81
SWIDTH 501 0
DWIDTH 24 0
BBX 20 24 10 -2
BITMAP
000F00
007FC0
01C060
038020
060030
0C0010
1C0010
380010
300030
600020
600020
C00060
C00040
C00040
C00080
C00180
C00300
C70200
FFCC00
787800
3CF000
0F9800
000C00
0007C0
ENDCHAR
STARTCHAR R
ENCODING 82
SWIDTH 620 0
DWIDTH 30 0
BBX 28 28 10 -6
BITMAP
00000700
000079C0
00018060
00060230
00180430
00600830
00C01830
03003030
06002030
0C004060
1800C0C0
3001E380
20037F00
40026000
40044000
80084000
80304000
8060C000
80C08000
81808000
C6008000
78008000
00008000
0000C000
00004000
00004000
00000000
00002000
ENDCHAR
STARTCHAR S
ENCODING 83
SWIDTH 528 0
DWIDTH 25 0
BBX 32 22 3 0
BITMAP
00000001
00000003
00000007
0000000B
00000032
00000066
000000C4
0000018C
00000308
00000418
00000810
00003030
0007E060
000CE060
001920C0
00122080
00146180
00184300
E0380600
E0D80C00
E18FF800
7E03E000
ENDCHAR
STARTCHAR T
ENCODING 84
SWIDTH 368 0
DWIDTH 18 0
BBX 18 22 8 0
BITMAP
000040
03CFC0
07F840
0E0040
0C0040
0C00C0
080080
000180
000100
000300
000300
000600
3C0600
620C00
C10C00
811800
81B000
C0B000
40E000
61C000
338000
1E0000
ENDCHAR
STARTCHAR U
ENCODING 85
SWIDTH 472 0
DWIDTH 23 0
BBX 27 22 7 0
BITMAP
00030020
000480E0
00FF01E0
00100340
00200680
00400D80
00801B00
01803600
03007C00
06007800
0C00E000
1801C000
30038000
20030000
40060000
C00C0100
801C0200
80380400
80680C00
81C81800
EF0C3000
3C03C000
ENDCHAR
STARTCHAR V
ENCODING 86
SWIDTH 305 0
DWIDTH 15 0
BBX 25 22 7 0
BITMAP
04002000
1E007800
1300CF80
12018000
02030000
06060000
04060000
040C0000
0C180000
08300000
18600000
10C00000
11C00000
33800000
23000000
26000000
6C000000
5C000000
78000000
F0000000
E0000000
C0000000
ENDCHAR
STARTCHAR W
ENCODING 87
SWIDTH 733 0
DWIDTH 35 0
BBX 49 22 -1 0
BITMAP
00000030031800
00000070071800
000000D00F1C00
000001201A1C00
00000240341E00
000004806C1F00
00000900D81180
00001301B02000
00003603E06000
00006C03C04000
0000D807008000
0000B00E018000
0001E01C010000
00038018020000
00030030040000
000E00600C0000
001C00E0180000
002C01C0300000
00CC0240600000
030C0440C00000
1C061863800000
E003E01E000000
ENDCHAR
STARTCHAR X
ENCODING 88
SWIDTH 395 0
DWIDTH 19 0
BBX 23 22 5 0
BITMAP
180060
3C00E0
760192
F3030C
E10300
018600
008C00
00D800
005800
007000
006000
007000
00D000
019800
030800
030C00
060400
0C0600
0C0200
180300
300100
200180
ENDCHAR
STARTCHAR Y
ENCODING 89
SWIDTH 400 0
DWIDTH 19 0
BBX 30 31 0 -9
BITMAP
00007008
0000903C
000FE048
000300D8
000600B0
000C00E0
001801C0
00300180
00300300
00300D00
00301900
0038E200
000F8200
00000F00
00007C00
00038C00
000C0800
00301800
00C03000
01806000
06006000
0C00C000
10018000
20030000
60060000
400C0000
40380000
C0700000
C1C00000
7F800000
3C000000
ENDCHAR
STARTCHAR Z
ENCODING 90
SWIDTH 651 0
DWIDTH 31 0
BBX 28 21 8 0
BITMAP
0F8000F0
0E0001D0
0E000330
060006E0
03FFFF80
00001800
00003000
00006000
0000C000
00018000
00030000
00040000
00080000
00100000
00200000
00400000
3F8003C0
63C001C0
C33C01C0
C607C180
78007F00
ENDCHAR
STARTCHAR bracketleft
ENCODING 91
SWIDTH 245 0
DWIDTH 12 0
BBX 24 22 0 0
BITMAP
00003F
000040
0000C0
000180
000300
000600
000400
000800
001000
003000
006000
00C000
008000
010000
020000
040000
0C0000
180000
300000
200000
400000
FE0000
ENDCHAR
STARTCHAR backslash
ENCODING 92
SWIDTH 800 0
DWIDTH 38 0
BBX 18 21 3 0
BITMAP
800000
400000
200000
300000
180000
0C0000
040000
020000
010000
018000
00C000
006000
002000
001000
000800
000C00
000600
000200
000100
000080
000040
ENDCHAR
STARTCHAR bracketright
ENCODING 93
SWIDTH 605 0
DWIDTH 29 0
BBX 24 22 6 0
BITMAP
00001F
000001
000002
000006
00000C
000018
000030
000020
000040
000080
000180
000300
000600
000C00
000800
001000
002000
004000
00C000
018000
030000
FE0000
ENDCHAR
STARTCHAR asciicircum
ENCODING 94
SWIDTH 474 0
DWIDTH 23 0
BBX 6 5 13 12
BITMAP
10
38
68
44
C4
ENDCHAR
STARTCHAR underscore
ENCODING 95
SWIDTH 452 0
DWIDTH 22 0
BBX 16 1 6 0
BITMAP
FFFF
ENDCHAR
STARTCHAR grave
ENCODING 96
SWIDTH 367 0
DWIDTH 18 0
BBX 7 3 1 10
BITMAP
E0
38
0E
ENDCHAR
STARTCHAR a
ENCODING 97
SWIDTH 272 0
DWIDTH 13 0
BBX 16 9 5 0
BITMAP
0600
1FC0
30C1
6081
C102
C304
8708
CD30
71E0
ENDCHAR
STARTCHAR b
ENCODING 98
SWIDTH 277 0
DWIDTH 13 0
BBX 17 22 5 0
BITMAP
000180
000380
000480
000800
001100
002200
004400
00C800
019000
032000
064000
0C8000
0D0000
1A0000
3C0080
38C000
60F600
C11800
C30000
860000
CC0000
780000
ENDCHAR
STARTCHAR c
ENCODING 99
SWIDTH 230 0
DWIDTH 11 0
BBX 14 9 5 0
BITMAP
0600
1F00
7084
6008
C008
C010
C060
61C0
3E00
ENDCHAR
STARTCHAR d
ENCODING 100
SWIDTH 275 0
DWIDTH 13 0
BBX 24 22 5 0
BITMAP
000002
00000F
00001A
000032
000044
000088
000190
000320
000640
000C80
000900
001A00
003400
066800
1FF000
38C080
608100
C18300
C10600
C30C00
CFB000
38E000
ENDCHAR
STARTCHAR e
ENCODING 101
SWIDTH 230 0
DWIDTH 11 0
BBX 15 9 5 0
BITMAP
0600
1F02
3304
6608
4C10
F820
6040
6380
3E00
ENDCHAR
STARTCHAR f
ENCODING 102
SWIDTH 215 0
DWIDTH 10 0
BBX 38 43 -15 -21
BITMAP
0000000008
000000001C
0000000030
0000000068
00000000C8
0000000190
0000000320
0000000620
0000000C40
0000001880
0000003100
0000006200
000000C400
000001D800
000003A000
000003C080
0000070100
00000E0200
00001C0400
00003C0800
0000763000
0000F3C000
0001B00000
0003200000
0006400000
000E400000
001C800000
0019800000
0031000000
0062000000
00C4000000
0184000000
0308000000
0710000000
0620000000
0C60000000
18C0000000
3080000000
3100000000
6200000000
CC00000000
F800000000
6000000000
ENDCHAR
STARTCHAR g
ENCODING 103
SWIDTH 280 0
DWIDTH 13 0
BBX 30 30 -8 -21
BITMAP
00003000
0000FE00
0001C604
00030408
00060C18
00060830
00041860
00067D80
0003E700
00004000
0000C000
00018000
0003E000
00070000
000E0000
00160000
006C0000
00D80000
01980000
01300000
02600000
04400000
08C00000
11800000
13000000
26000000
4C000000
48000000
F0000000
E0000000
ENDCHAR
STARTCHAR h
ENCODING 104
SWIDTH 322 0
DWIDTH 16 0
BBX 20 22 4 0
BITMAP
0000C0
0001C0
000240
000C80
001880
003100
006200
00C400
018800
011000
032000
064000
048000
0F3000
1E7800
199810
331020
363040
6C2080
786100
F06600
C03800
ENDCHAR
STARTCHAR i
ENCODING 105
SWIDTH 150 0
DWIDTH 7 0
BBX 11 14 5 0
BITMAP
0080
0180
0000
0000
0000
1800
1800
3020
6040
6080
C100
8200
CC00
7000
ENDCHAR
STARTCHAR j
ENCODING 106
SWIDTH 158 0
DWIDTH 8 0
BBX 31 35 -15 -21
BITMAP
00000010
00000030
00000000
00000000
00000000
00000080
00000180
00000302
00000604
00000410
00000C20
000018C0
00001B00
00003C00
00007000
0001E000
0003C000
00048000
00098000
00130000
00220000
00460000
008C0000
01180000
02180000
02300000
04600000
08C00000
11800000
13800000
23000000
46000000
4C000000
D8000000
E0000000
ENDCHAR
STARTCHAR k
ENCODING 107
SWIDTH 200 0
DWIDTH 10 0
BBX 19 21 3 0
BITMAP
0000E0
0001A0
000340
000600
000C80
001900
003200
006400
00C800
00B000
016000
038000
076000
07A100
0E6200
198600
3E0C00
381800
6C3000
C46000
838000
ENDCHAR
STARTCHAR l
ENCODING 108
SWIDTH 180 0
DWIDTH 9 0
BBX 18 22 5 0
BITMAP
0000C0
0001C0
000640
000C80
001900
003000
006200
00C400
018800
031000
032000
064000
0D8000
1A0000
1C0800
381000
702000
604000
C08000
C10000
460000
380000
ENDCHAR
STARTCHAR m
ENCODING 109
SWIDTH 453 0
DWIDTH 22 0
BBX 27 9 4 0
BITMAP
0C602000
0CF0F020
19B1B040
36262080
6C6C6100
78D84200
F0F0C400
E1E0D800
C1C07000
ENDCHAR
STARTCHAR n
ENCODING 110
SWIDTH 301 0
DWIDTH 14 0
BBX 19 9 4 0
BITMAP
043000
0CF000
199020
333040
662080
686100
F06200
E06600
C03800
ENDCHAR
STARTCHAR o
ENCODING 111
SWIDTH 241 0
DWIDTH 12 0
BBX 16 10 5 0
BITMAP
0C00
0F00
1FC1
30FC
6080
C100
C100
C200
CC00
7000
ENDCHAR
STARTCHAR p
ENCODING 112
SWIDTH 245 0
DWIDTH 12 0
BBX 31 31 -11 -22
BITMAP
00001700
00003D80
00007182
00006184
0000C188
00018330
00018760
0003DF80
00067C00
00060000
000A0000
00140000
00340000
002C0000
00480000
00C80000
01900000
01100000
03200000
06200000
04400000
0C400000
18800000
11800000
31000000
22000000
64000000
CC000000
D8000000
F0000000
C0000000
ENDCHAR
STARTCHAR q
ENCODING 113
SWIDTH 279 0
DWIDTH 13 0
BBX 25 30 -4 -21
BITMAP
00030000
000FE000
0018E080
0030C100
00608100
00418200
00438400
00679800
003EF000
000A0000
000A0000
00140000
00240000
00640000
00480000
00880000
01900000
01100000
02200000
06200000
04400000
0C400000
18800000
11000000
31000000
22000000
64000000
48000000
F0000000
60000000
ENDCHAR
STARTCHAR r
ENCODING 114
SWIDTH 235 0
DWIDTH 11 0
BBX 12 9 7 0
BITMAP
C400
FC00
1010
2010
6020
C040
C080
4300
7C00
ENDCHAR
STARTCHAR s
ENCODING 115
SWIDTH 191 0
DWIDTH 9 0
BBX 13 9 4 0
BITMAP
0C00
0E00
1A00
3208
6218
C210
C220
C4C0
7F00
ENDCHAR
STARTCHAR t
ENCODING 116
SWIDTH 193 0
DWIDTH 9 0
BBX 38 22 2 0
BITMAP
0000200000
0000700000
0000E00000
0001C00000
0002C00000
000580000C
078F000070
1C3FF03F00
3836000000
706C000000
E050000000
C0E0000000
01C0000000
0380000000
0301000000
0602000000
0C06000000
0C04000000
0818000000
0830000000
0C40000000
0780000000
ENDCHAR
STARTCHAR u
ENCODING 117
SWIDTH 279 0
DWIDTH 13 0
BBX 17 9 5 0
BITMAP
102000
106000
306080
60C100
C18200
C18400
C30C00
CD9800
78E000
ENDCHAR
STARTCHAR v
ENCODING 118
SWIDTH 297 0
DWIDTH 14 0
BBX 16 9 7 0
BITMAP
3020
7879
D18E
3300
3600
6C00
7800
F000
C000
ENDCHAR
STARTCHAR w
ENCODING 119
SWIDTH 387 0
DWIDTH 19 0
BBX 22 9 5 0
BITMAP
183100
106280
30C304
60C188
418200
C18400
C30400
C58800
78F000
ENDCHAR
STARTCHAR x
ENCODING 120
SWIDTH 279 0
DWIDTH 13 0
BBX 17 9 6 0
BITMAP
306000
78F180
659A00
C70000
060000
070000
0D0000
198000
308000
ENDCHAR
STARTCHAR y
ENCODING 121
SWIDTH 283 0
DWIDTH 14 0
BBX 28 30 -6 -21
BITMAP
00030000
00020600
00060C10
000C1820
00181840
00183080
00186100
0018E200
000F4C00
0000D800
0001B000
00014000
00038000
000F0000
001E0000
002C0000
00480000
00980000
01300000
02200000
04600000
08C00000
11800000
13000000
22000000
46000000
4C000000
98000000
B0000000
C0000000
ENDCHAR
STARTCHAR z
ENCODING 122
SWIDTH 229 0
DWIDTH 11 0
BBX 26 31 -7 -22
BITMAP
00006000
0003F000
00071040
00063040
00006080
0001E100
00033200
00003400
00006800
0000F000
0001C000
00038000
00070000
000A0000
00120000
00240000
00480000
00980000
01100000
02300000
04600000
04C00000
08800000
11800000
23000000
26000000
4C000000
98000000
B0000000
E0000000
80000000
ENDCHAR
STARTCHAR braceleft
ENCODING 123
SWIDTH 191 0
DWIDTH 9 0
BBX 22 28 3 -4
BITMAP
000004
000038
0000E0
000180
000600
000C00
001800
002000
004000
018000
070000
040000
040000
040000
0C0000
080000
100000
100000
200000
200000
600000
400000
400000
C00000
800000
800000
800000
800000
ENDCHAR
STARTCHAR bar
ENCODING 124
SWIDTH 386 0
DWIDTH 19 0
BBX 1 22 16 0
BITMAP
80
80
80
80
80
80
80
80
80
80
80
80
80
80
80
80
80
80
80
80
80
80
ENDCHAR
STARTCHAR braceright
ENCODING 125
SWIDTH 422 0
DWIDTH 20 0
BBX 21 28 3 -4
BITMAP
000008
000008
000008
000008
000008
000010
000010
000010
000020
000020
000020
000040
000040
000080
000080
000080
000080
000180
000E00
001800
003000
006000
00C000
018000
060000
0C0000
300000
C00000
ENDCHAR
STARTCHAR asciitilde
ENCODING 126
SWIDTH 367 0
DWIDTH 18 0
BBX 7 2 1 4
BITMAP
60
9E
ENDCHAR
STARTCHAR exclamdown
ENCODING 161
SWIDTH 482 0
DWIDTH 23 0
BBX 19 21 -1 -13
BITMAP
000060
000040
000000
000100
000200
000600
000C00
001800
003000
006000
00C000
01C000
038000
070000
0E0000
0C0000
180000
300000
600000
E00000
C00000
ENDCHAR
STARTCHAR cent
ENCODING 162
SWIDTH 532 0
DWIDTH 26 0
BBX 9 11 3 -1
BITMAP
0080
0700
3B00
6480
CC00
C800
9000
E080
6180
7E00
8000
ENDCHAR
STARTCHAR sterling
ENCODING 163
SWIDTH 394 0
DWIDTH 19 0
BBX 14 22 0 0
BITMAP
01E0
07F8
0F18
0C0C
1C0C
1804
180C
080C
0C18
0C18
0C00
1800
FF80
1800
3000
3000
2000
6000
4000
E000
FE60
87C0
ENDCHAR
STARTCHAR currency
ENCODING 164
SWIDTH 800 0
DWIDTH 38 0
BBX 12 12 5 0
BITMAP
4620
FFF0
7060
6020
C030
C010
C010
C010
4020
6060
F8F0
CF30
ENDCHAR
STARTCHAR yen
ENCODING 165
SWIDTH 624 0
DWIDTH 30 0
BBX 30 31 -4 -9
BITMAP
00002000
0000D03C
001FB068
00030048
00060090
000C00A0
001801C0
00100180
00F003E0
00300700
00301900
00387300
001FC200
03FFFFF0
00007E00
0001CC00
000E0800
00381800
00E01000
01802000
06006000
0C00C000
18018000
30030000
20060000
400E0000
40180000
C0700000
C0E00000
67800000
3E000000
ENDCHAR
STARTCHAR brokenbar
ENCODING 166
SWIDTH 379 0
DWIDTH 18 0
BBX 1 22 14 0
BITMAP
80
80
80
80
80
80
80
80
80
00
00
00
00
80
80
80
80
80
80
80
80
80
ENDCHAR
STARTCHAR section
ENCODING 167
SWIDTH 923 0
DWIDTH 44 0
BBX 18 21 10 0
BITMAP
000F80
0018C0
001040
003040
001000
001000
01F800
031800
020C00
060400
060400
020C00
031C00
01F800
01E000
018000
C08000
C18000
618000
3F0000
1E0000
ENDCHAR
STARTCHAR dieresis
ENCODING 168
SWIDTH 367 0
DWIDTH 18 0
BBX 5 1 1 12
BITMAP
C8
ENDCHAR
STARTCHAR copyright
ENCODING 169
SWIDTH 685 0
DWIDTH 33 0
BBX 20 19 11 0
BITMAP
01F800
07FE00
0E0300
180080
300040
703060
60FC20
618420
630420
C60010
460010
660120
630620
61F820
300040
180080
0C0300
07FE00
01F800
ENDCHAR
STARTCHAR ordfeminine
ENCODING 170
SWIDTH 802 0
DWIDTH 39 0
BBX 7 6 11 15
BITMAP
08
36
46
C4
8C
F4
ENDCHAR
STARTCHAR guillemotleft
ENCODING 171
SWIDTH 380 0
DWIDTH 18 0
BBX 7 6 11 1
BITMAP
66
CC
88
CC
66
20
ENDCHAR
STARTCHAR logicalnot
ENCODING 172
SWIDTH 438 0
DWIDTH 21 0
BBX 8 3 13 5
BITMAP
FF
02
06
ENDCHAR
STARTCHAR registered
ENCODING 174
SWIDTH 648 0
DWIDTH 31 0
BBX 19 19 12 0
BITMAP
03F800
0FFE00
1C0300
380180
700CC0
607640
E09260
C33220
C67420
CC5820
C89020
CB2020
CE2060
602040
6000C0
301180
1C0300
0FFE00
01F000
ENDCHAR
STARTCHAR macron
ENCODING 175
SWIDTH 583 0
DWIDTH 28 0
BBX 8 1 10 18
BITMAP
FF
ENDCHAR
STARTCHAR degree
ENCODING 176
SWIDTH 538 0
DWIDTH 26 0
BBX 3 3 5 11
BITMAP
40
A0
C0
ENDCHAR
STARTCHAR plusminus
ENCODING 177
SWIDTH 361 0
DWIDTH 17 0
BBX 12 12 3 1
BITMAP
0080
0180
0100
0300
FFF0
0C00
1800
1800
1000
0000
FF00
7E00
ENDCHAR
STARTCHAR acute
ENCODING 180
SWIDTH 367 0
DWIDTH 18 0
BBX 7 4 1 10
BITMAP
02
0E
38
C0
ENDCHAR
STARTCHAR paragraph
ENCODING 182
SWIDTH 292 0
DWIDTH 14 0
BBX 15 16 2 0
BITMAP
03FE
061A
0C36
182C
1858
18B0
0F20
07C0
0780
0D80
1B00
1600
2C00
4800
D000
A000
ENDCHAR
STARTCHAR periodcentered
ENCODING 183
SWIDTH 367 0
DWIDTH 18 0
BBX 2 3 4 6
BITMAP
C0
C0
80
ENDCHAR
STARTCHAR cedilla
ENCODING 184
SWIDTH 367 0
DWIDTH 18 0
BBX 4 5 3 -5
BITMAP
40
70
10
10
F0
ENDCHAR
STARTCHAR ordmasculine
ENCODING 186
SWIDTH 747 0
DWIDTH 36 0
BBX 6 6 10 15
BITMAP
18
3C
60
44
C0
50
ENDCHAR
STARTCHAR guillemotright
ENCODING 187
SWIDTH 704 0
DWIDTH 34 0
BBX 7 5 9 2
BITMAP
88
66
22
66
CC
ENDCHAR
STARTCHAR onequarter
ENCODING 188
SWIDTH 367 0
DWIDTH 18 0
BBX 15 14 0 0
BITMAP
0010
0420
0840
10C0
2080
0102
0200
8400
0848
1850
30F8
2040
4080
8000
ENDCHAR
STARTCHAR onehalf
ENCODING 189
SWIDTH 367 0
DWIDTH 18 0
BBX 12 13 1 0
BITMAP
0420
0840
1080
2180
4300
8200
0440
08E0
1000
2000
6000
C0C0
8030
ENDCHAR
STARTCHAR threequarters
ENCODING 190
SWIDTH 367 0
DWIDTH 18 0
BBX 13 13 0 1
BITMAP
0010
1030
0860
1040
C080
D100
E200
0608
0C10
08A0
1148
2080
4000
ENDCHAR
STARTCHAR questiondown
ENCODING 191
SWIDTH 628 0
DWIDTH 30 0
BBX 15 22 0 -13
BITMAP
0002
0006
0000
0000
0008
0018
0030
0060
0040
0080
0300
0E00
1C00
3800
7000
6000
E020
6020
6060
70C0
3F80
0E00
ENDCHAR
STARTCHAR Agrave
ENCODING 192
SWIDTH 247 0
DWIDTH 12 0
BBX 35 35 -8 -9
BITMAP
0000000E00
0000000780
00000000E0
0000000000
0000000000
00000001C0
0000000340
0000000680
0000000500
0000000A00
0000001C00
0000003800
0000007000
0000006000
000000C000
0000018000
0000070000
00000F0000
0000360000
0010E40000
000F8C0000
0007980000
7018700000
E060380000
6180200000
3C00400000
0000C00000
0000800000
0001800000
0001000000
0003000000
0002000000
0006000000
0004000000
0004000000
ENDCHAR
STARTCHAR Aacute
ENCODING 193
SWIDTH 257 0
DWIDTH 12 0
BBX 36 34 -8 -9
BITMAP
0000000070
00000001C0
0000000600
0000000000
00000001C0
0000000340
0000000680
0000000500
0000000A00
0000001C00
0000003800
0000007000
0000006000
000000C000
0000018000
0000070000
00000F0000
0000360000
0010E40000
000F8C0000
0007980000
7018700000
E060380000
6180200000
3C00400000
0000C00000
0000800000
0001800000
0001000000
0003000000
0002000000
0006000000
0004000000
0004000000
ENDCHAR
STARTCHAR Acircumflex
ENCODING 194
SWIDTH 276 0
DWIDTH 13 0
BBX 36 35 -8 -9
BITMAP
00000000C0
00000001E0
0000000130
0000000000
0000000000
00000001C0
0000000340
0000000680
0000000500
0000000A00
0000001C00
0000003800
0000007000
0000006000
000000C000
0000018000
0000070000
00000F0000
0000360000
0010E40000
000F8C0000
0007980000
7018700000
E060380000
6180200000
3C00400000
0000C00000
0000800000
0001800000
0001000000
0003000000
0002000000
0006000000
0004000000
0004000000
ENDCHAR
STARTCHAR Atilde
ENCODING 195
SWIDTH 455 0
DWIDTH 22 0
BBX 37 34 2 -9
BITMAP
0000000180
0000000258
0000000020
0000000000
0000000380
0000000680
0000000500
0000000B00
0000001600
0000003C00
0000007800
0000006000
000000C000
0000018000
0000030000
00000F0000
00001E0000
00006C0000
0020C80000
000F180000
000F300000
E038600000
C0C0700000
C300400000
7800C00000
0000800000
0001000000
0001000000
0002000000
0002000000
0004000000
0004000000
0008000000
0008000000
ENDCHAR
STARTCHAR Adieresis
ENCODING 196
SWIDTH 367 0
DWIDTH 18 0
BBX 36 33 -8 -9
BITMAP
00000001B0
0000000000
0000000000
00000001C0
0000000340
0000000680
0000000500
0000000A00
0000001C00
0000003800
0000007000
0000006000
000000C000
0000018000
0000070000
00000F0000
0000360000
0010E40000
000F8C0000
0007980000
7018700000
E060380000
6180200000
3C00400000
0000C00000
0000800000
0001800000
0001000000
0003000000
0002000000
0006000000
0004000000
0004000000
ENDCHAR
STARTCHAR Aring
ENCODING 197
SWIDTH 367 0
DWIDTH 18 0
BBX 36 33 -8 -9
BITMAP
0000000020
0000000070
0000000020
00000001C0
0000000340
0000000680
0000000500
0000000A00
0000001400
0000003800
0000007000
0000006000
000000C000
0000018000
0000070000
00000F0000
0000360000
0010E40000
000F8C0000
0007980000
7018700000
E060380000
E180600000
3C00400000
0000C00000
0000800000
0001800000
0001000000
0003000000
0002000000
0006000000
0004000000
0004000000
ENDCHAR
STARTCHAR AE
ENCODING 198
SWIDTH 556 0
DWIDTH 27 0
BBX 40 30 -5 -9
BITMAP
00000001C0
0000000280
0000000480
0000000D00
0000001A00
0000003790
0000003C70
0000007838
000000D000
000001B000
0000039800
0000073C00
00001EE000
0000378000
0020CE0001
000F1C0002
0007183E02
E018786104
C0E078C100
C300718308
7C00E10210
0000E10220
0001E184C0
000130FF00
0003307000
00021CC000
0006060000
0004000000
000C000000
0008000000
ENDCHAR
STARTCHAR Ccedilla
ENCODING 199
SWIDTH 432 0
DWIDTH 21 0
BBX 20 27 9 -5
BITMAP
000700
003080
00C040
0180C0
0301C0
060340
0C0640
180C40
380840
3018C0
601080
603180
603100
C03600
C03C00
C00010
400020
600040
600180
300300
1C1C00
0FF000
010000
016000
002000
016000
01C000
ENDCHAR
STARTCHAR Egrave
ENCODING 200
SWIDTH 230 0
DWIDTH 11 0
BBX 19 26 0 0
BITMAP
003000
003C00
000700
000180
000600
001FE0
0030E0
006060
006000
006000
007800
01E000
030000
0E0000
180000
303800
70C400
618400
C30400
C20420
C20C40
C20980
C33E00
C1F000
618000
1E0000
ENDCHAR
STARTCHAR Eacute
ENCODING 201
SWIDTH 346 0
DWIDTH 17 0
BBX 20 26 5 0
BITMAP
000060
0001E0
000700
001800
000220
001FE0
003070
002060
006000
002000
003800
00E000
038000
060000
1C0000
383800
304400
618200
610200
C30410
C30460
C30C80
C31F00
61F800
70C000
1F0000
ENDCHAR
STARTCHAR Ecircumflex
ENCODING 202
SWIDTH 343 0
DWIDTH 16 0
BBX 20 26 5 0
BITMAP
000040
0000E0
0001B0
000000
000220
001FE0
003070
002060
006000
002000
003800
00F000
038000
060000
1C0000
381800
70C400
618200
610200
C30410
C20460
C30880
C31F00
61F800
70C000
1F0000
ENDCHAR
STARTCHAR Edieresis
ENCODING 203
SWIDTH 353 0
DWIDTH 17 0
BBX 20 24 5 0
BITMAP
000260
000000
000220
001FE0
003070
002060
006000
002000
003800
00F000
038000
060000
1C0000
381800
306400
608200
610200
E30410
C30420
C30CC0
C31F00
61F800
70C000
1F0000
ENDCHAR
STARTCHAR Igrave
ENCODING 204
SWIDTH 324 0
DWIDTH 16 0
BBX 21 27 -1 0
BITMAP
000300
000380
0000E0
000018
000000
000000
000070
0001D0
000190
000320
000620
000640
000440
000C80
000D00
000500
003E00
004E00
008F00
008B00
009000
002000
604000
E08000
C30000
CE0000
780000
ENDCHAR
STARTCHAR Iacute
ENCODING 205
SWIDTH 367 0
DWIDTH 18 0
BBX 21 27 1 0
BITMAP
000008
000038
0000E0
000300
000000
000000
000070
0000D0
000190
000320
000620
000640
000440
000480
000580
000500
003E00
004E00
008700
008B00
009000
003000
606000
E0C000
E30000
C60000
780000
ENDCHAR
STARTCHAR Icircumflex
ENCODING 206
SWIDTH 367 0
DWIDTH 18 0
BBX 22 26 1 0
BITMAP
000010
000038
00006C
000044
000010
000078
0000C8
000190
000390
000320
000220
000640
000640
000680
000500
003F00
006700
004700
000F00
001800
003000
706000
70C000
E18000
670000
3C0000
ENDCHAR
STARTCHAR Idieresis
ENCODING 207
SWIDTH 367 0
DWIDTH 18 0
BBX 22 25 1 0
BITMAP
000024
000044
000000
000010
000070
0000D0
000190
000330
000320
000660
000640
000480
000480
000500
003F00
006600
00C700
008F00
009800
003000
606000
E0C000
E18000
E60000
780000
ENDCHAR
STARTCHAR Eth
ENCODING 208
SWIDTH 513 0
DWIDTH 25 0
BBX 28 22 3 0
BITMAP
00000040
000001E0
00000630
00000C10
00001810
00003010
00002010
18004030
20004030
6000C030
C0008060
C3FFF860
C0D18060
C1A100C0
7E6100C0
00C10180
03E10380
04B08300
09188600
120C1C00
140F7800
1803F000
ENDCHAR
STARTCHAR Ntilde
ENCODING 209
SWIDTH 367 0
DWIDTH 18 0
BBX 39 25 7 0
BITMAP
0000018000
0000016800
0000001000
0180080080
07001801E0
0E1E38033E
0C66C80600
0F85900C00
000F101800
000E103000
001C202000
0038204000
007020C000
0060418000
00C0430000
0180C20000
0300840000
06008C0000
0401980000
0801300000
1001600000
3003400000
6002800000
C003000000
8002000000
ENDCHAR
STARTCHAR Ograve
ENCODING 210
SWIDTH 367 0
DWIDTH 18 0
BBX 21 26 -2 0
BITMAP
000E00
000780
0001E0
000030
000F80
007FE0
00EC30
019810
033010
062018
0C6018
184018
38C018
308010
708010
618030
618020
E08060
C00040
C00080
C00180
600300
600600
301C00
1EF000
07C000
ENDCHAR
STARTCHAR Oacute
ENCODING 211
SWIDTH 367 0
DWIDTH 18 0
BBX 21 27 -2 0
BITMAP
000040
0003C0
000F00
001800
000000
000F80
007FE0
00EC30
019810
033010
062018
0C6018
184018
38C018
308010
708010
618030
618020
E08060
C00040
C00080
C00180
600300
600600
301C00
1EF000
07C000
ENDCHAR
STARTCHAR Ocircumflex
ENCODING 212
SWIDTH 367 0
DWIDTH 18 0
BBX 21 26 -2 0
BITMAP
000300
000780
000480
000000
000F80
007FE0
00EC30
019810
033010
062018
0C6018
184018
38C010
308010
708010
618030
618020
C08060
C00040
C00080
C00180
600300
600600
301C00
1CF000
0FC000
ENDCHAR
STARTCHAR Otilde
ENCODING 213
SWIDTH 367 0
DWIDTH 18 0
BBX 21 26 -2 0
BITMAP
000600
000D20
0000C0
000000
000F80
007FE0
00EC30
019810
033010
062018
0C6018
184018
38C018
308010
708010
618030
618020
E08060
C00040
C00080
C00180
600300
600600
301C00
1EF000
07C000
ENDCHAR
STARTCHAR Odieresis
ENCODING 214
SWIDTH 367 0
DWIDTH 18 0
BBX 21 25 -2 0
BITMAP
000440
000480
000000
000F80
007FE0
00EC30
019810
031010
062018
0C6018
184018
38C018
308010
708010
618030
618020
E08060
C00040
C00080
C00180
600300
600600
301C00
1CF000
0FC000
ENDCHAR
STARTCHAR multiply
ENCODING 215
SWIDTH 302 0
DWIDTH 15 0
BBX 6 9 4 2
BITMAP
24
2C
28
30
30
70
50
98
88
ENDCHAR
STARTCHAR Oslash
ENCODING 216
SWIDTH 516 0
DWIDTH 25 0
BBX 23 22 9 0
BITMAP
000F82
003FE4
00EC38
019830
031068
0620C8
0C6188
1C4308
18C618
308C18
309810
60A030
60C020
608020
610040
6600C0
6C0180
780300
700600
700C00
DEF000
87C000
ENDCHAR
STARTCHAR Ugrave
ENCODING 217
SWIDTH 933 0
DWIDTH 45 0
BBX 27 26 6 0
BITMAP
00010000
0001C000
00007000
00000C00
00030020
000480E0
007F01A0
00180340
003006C0
00600D80
00C01B00
01803600
03003C00
06007800
0C00F000
1801C000
10038000
20030000
40060000
C00C0100
801C0200
80380600
80680C00
81C81800
EF043000
3E03C000
ENDCHAR
STARTCHAR Uacute
ENCODING 218
SWIDTH 367 0
DWIDTH 18 0
BBX 27 26 6 0
BITMAP
000000C0
000003C0
00000E00
00003000
00030020
000480E0
007F01A0
00180340
003006C0
00600D80
00C01B00
01803600
03003C00
06007800
0C00F000
1801C000
10038000
20030000
40060000
C00C0100
801C0200
80380600
80680C00
81C81800
EF043000
3E03C000
ENDCHAR
STARTCHAR Ucircumflex
ENCODING 219
SWIDTH 367 0
DWIDTH 18 0
BBX 27 25 6 0
BITMAP
00001C00
00001600
00002200
00030020
000480E0
007F01A0
00180340
003006C0
00600D80
00C01B00
01803600
03003C00
06007800
0C00F000
1801C000
10038000
20030000
40060000
C00C0100
801C0200
80380600
80680C00
81C81800
EF043000
3E03C000
ENDCHAR
STARTCHAR Udieresis
ENCODING 220
SWIDTH 0 0
DWIDTH 0 0
BBX 27 25 6 0
BITMAP
00001300
00001200
00000000
00030020
000480E0
007F01A0
00180340
003006C0
00600D80
00C01B00
01803600
03003C00
06007800
0C00F000
1801C000
10038000
20030000
40060000
C00C0100
801C0200
80380600
80680C00
81C81800
EF043000
3E03C000
ENDCHAR
STARTCHAR Yacute
ENCODING 221
SWIDTH 367 0
DWIDTH 18 0
BBX 30 35 0 -9
BITMAP
00000018
00000078
000001C0
00000200
00007008
0000903C
000FE048
000300D8
000600B0
000C00E0
001801C0
00300180
00300300
00300D00
00301900
0038E200
000F8200
00000F00
00007C00
00038C00
000C0800
00301800
00C03000
01806000
06006000
0C00C000
10018000
20030000
60060000
400C0000
40380000
C0700000
C1C00000
7F800000
3C000000
ENDCHAR
STARTCHAR Thorn
ENCODING 222
SWIDTH 491 0
DWIDTH 24 0
BBX 25 24 3 -8
BITMAP
00000380
00000680
00000400
001FC800
00603000
00C43800
01046C00
030C4600
060C8600
04190600
041A0600
08320600
08640C00
0CC80C00
079C3800
0031E000
00200000
00400000
60C00000
B1800000
B3000000
36000000
BC000000
F8000000
ENDCHAR
STARTCHAR germandbls
ENCODING 223
SWIDTH 338 0
DWIDTH 16 0
BBX 24 22 2 0
BITMAP
000004
00000E
00001B
000033
000023
000043
0000C6
00018E
00031C
000278
0006E0
000CC0
0018C0
0010C0
0030C0
006180
00C180
018300
010700
020E00
CC3800
78E000
ENDCHAR
STARTCHAR agrave
ENCODING 224
SWIDTH 262 0
DWIDTH 13 0
BBX 17 13 4 0
BITMAP
030000
038000
00E000
001800
020000
0FE000
38C080
30C100
608300
418200
C38400
479800
38E000
ENDCHAR
STARTCHAR aacute
ENCODING 225
SWIDTH 269 0
DWIDTH 13 0
BBX 17 13 4 0
BITMAP
006000
01E000
070000
080000
060000
0FE000
38C080
70C100
608300
C18200
C30C00
47B800
78E000
ENDCHAR
STARTCHAR acircumflex
ENCODING 226
SWIDTH 275 0
DWIDTH 13 0
BBX 16 13 5 0
BITMAP
0600
0500
0980
0000
0600
1FC0
30C1
6182
C102
C304
8708
CD30
71E0
ENDCHAR
STARTCHAR atilde
ENCODING 227
SWIDTH 275 0
DWIDTH 13 0
BBX 16 13 5 0
BITMAP
0600
01A0
0040
0000
0600
1FC0
31C1
6182
C102
8304
8708
8F30
71C0
ENDCHAR
STARTCHAR adieresis
ENCODING 228
SWIDTH 266 0
DWIDTH 13 0
BBX 16 13 5 0
BITMAP
0260
0660
0000
0000
0600
1FC0
38C1
6081
C182
C104
8308
CD30
71E0
ENDCHAR
STARTCHAR aring
ENCODING 229
SWIDTH 270 0
DWIDTH 13 0
BBX 17 13 4 0
BITMAP
00C000
00A000
004000
000000
020000
0FE000
38C080
70C100
608300
C18200
C38C00
479800
78E000
ENDCHAR
STARTCHAR ae
ENCODING 230
SWIDTH 345 0
DWIDTH 17 0
BBX 20 9 5 0
BITMAP
020000
1FFE10
38E610
60C420
619860
C1F0C0
C3C180
CCC300
787C00
ENDCHAR
STARTCHAR ccedilla
ENCODING 231
SWIDTH 470 0
DWIDTH 23 0
BBX 14 13 5 -4
BITMAP
0E00
3F00
7104
C108
C018
C030
8060
C180
3E00
1C00
0600
0200
1E00
ENDCHAR
STARTCHAR egrave
ENCODING 232
SWIDTH 213 0
DWIDTH 10 0
BBX 14 13 5 0
BITMAP
4000
7000
1C00
0300
0400
3E04
620C
C618
CC30
F060
C0C0
C300
3C00
ENDCHAR
STARTCHAR eacute
ENCODING 233
SWIDTH 218 0
DWIDTH 10 0
BBX 14 13 5 0
BITMAP
0600
1E00
7800
8000
0400
3E04
620C
C618
CC30
F060
C0C0
C300
3C00
ENDCHAR
STARTCHAR ecircumflex
ENCODING 234
SWIDTH 213 0
DWIDTH 10 0
BBX 14 13 5 0
BITMAP
0C00
1400
2200
0000
0400
3E04
620C
C618
CC30
F060
C0C0
C300
7C00
ENDCHAR
STARTCHAR edieresis
ENCODING 235
SWIDTH 235 0
DWIDTH 11 0
BBX 15 13 5 0
BITMAP
1100
3300
0000
0000
0400
3F02
6304
4608
CC10
F820
C0C0
6380
3E00
ENDCHAR
STARTCHAR igrave
ENCODING 236
SWIDTH 147 0
DWIDTH 7 0
BBX 11 15 5 0
BITMAP
C000
E000
3800
0600
0000
0000
0800
1820
3040
6040
C080
C100
8200
8C00
F000
ENDCHAR
STARTCHAR iacute
ENCODING 237
SWIDTH 134 0
DWIDTH 6 0
BBX 14 14 4 0
BITMAP
0008
003C
00F0
0300
0000
0800
1800
3020
7040
6080
C100
C200
CC00
7000
ENDCHAR
STARTCHAR icircumflex
ENCODING 238
SWIDTH 138 0
DWIDTH 7 0
BBX 11 13 4 0
BITMAP
0600
0A00
1100
0000
0800
1800
3020
7040
6080
C100
C200
CC00
7000
ENDCHAR
STARTCHAR idieresis
ENCODING 239
SWIDTH 135 0
DWIDTH 7 0
BBX 11 13 4 0
BITMAP
0C80
0080
0000
0000
0800
1800
3020
7040
6080
C100
C200
CC00
7000
ENDCHAR
STARTCHAR eth
ENCODING 240
SWIDTH 218 0
DWIDTH 10 0
BBX 14 15 4 0
BITMAP
2400
1800
3800
4C00
0400
0200
1F00
1F00
3984
7178
6100
C100
C200
CC00
7000
ENDCHAR
STARTCHAR ntilde
ENCODING 241
SWIDTH 612 0
DWIDTH 29 0
BBX 18 13 4 0
BITMAP
038000
00F000
002000
000000
082000
18F000
193040
3220C0
6C2180
586100
F04200
E04C00
C07800
ENDCHAR
STARTCHAR ograve
ENCODING 242
SWIDTH 233 0
DWIDTH 11 0
BBX 15 14 5 0
BITMAP
1000
1C00
0700
01C0
1C00
1F00
3F82
71FC
E100
C100
8300
8600
CC00
7000
ENDCHAR
STARTCHAR oacute
ENCODING 243
SWIDTH 233 0
DWIDTH 11 0
BBX 15 15 5 0
BITMAP
0040
01C0
0700
1800
0000
1C00
1F00
3F82
71FC
E100
C100
8300
8600
CC00
7000
ENDCHAR
STARTCHAR ocircumflex
ENCODING 244
SWIDTH 230 0
DWIDTH 11 0
BBX 15 15 5 0
BITMAP
0300
0780
0C80
0840
0000
1C00
1F00
3F82
71FC
E100
C100
8300
8600
CC00
7000
ENDCHAR
STARTCHAR otilde
ENCODING 245
SWIDTH 232 0
DWIDTH 11 0
BBX 15 13 5 0
BITMAP
0300
04E0
0000
0C00
1F00
3D82
71EC
6100
C100
8300
8600
CC00
7000
ENDCHAR
STARTCHAR odieresis
ENCODING 246
SWIDTH 229 0
DWIDTH 11 0
BBX 16 13 5 0
BITMAP
0130
0330
0000
0C00
0F80
3CC3
30BC
6080
C100
C100
C600
CC00
7000
ENDCHAR
STARTCHAR divide
ENCODING 247
SWIDTH 367 0
DWIDTH 18 0
BBX 10 9 0 4
BITMAP
0400
0C00
0C00
0000
FFC0
7FC0
0000
0C00
0C00
ENDCHAR
STARTCHAR oslash
ENCODING 248
SWIDTH 228 0
DWIDTH 11 0
BBX 13 9 4 0
BITMAP
0C00
0F80
1D80
32F8
6480
4900
7300
4600
F800
ENDCHAR
STARTCHAR ugrave
ENCODING 249
SWIDTH 268 0
DWIDTH 13 0
BBX 17 13 5 0
BITMAP
700000
1C0000
030000
000000
102000
306080
60C100
60C100
C18200
C30400
870800
C91000
71E000
ENDCHAR
STARTCHAR uacute
ENCODING 250
SWIDTH 281 0
DWIDTH 14 0
BBX 17 15 5 0
BITMAP
004000
01E000
070000
180000
000000
000000
102000
306080
60C100
60C100
C18200
C30400
870800
C91000
71E000
ENDCHAR
STARTCHAR ucircumflex
ENCODING 251
SWIDTH 282 0
DWIDTH 14 0
BBX 17 15 5 0
BITMAP
030000
078000
0C8000
084000
000000
000000
102000
306080
60C100
60C100
C18200
C30400
870800
C91000
71E000
ENDCHAR
STARTCHAR udieresis
ENCODING 252
SWIDTH 270 0
DWIDTH 13 0
BBX 17 13 5 0
BITMAP
064000
048000
000000
000000
102000
306080
60C100
60C100
C18200
C30400
870800
C91000
71E000
ENDCHAR
STARTCHAR yacute
ENCODING 253
SWIDTH 367 0
DWIDTH 18 0
BBX 28 35 -6 -21
BITMAP
00000200
00000E00
00007800
0000C000
00000000
00030400
00060600
00060C10
000C1820
00181840
00183080
00186100
0018E200
000F4C00
0000D800
0001B000
00014000
00038000
000F0000
001C0000
002C0000
00580000
00980000
01300000
02200000
04600000
08C00000
11800000
13000000
22000000
44000000
4C000000
98000000
B0000000
C0000000
ENDCHAR
STARTCHAR thorn
ENCODING 254
SWIDTH 225 0
DWIDTH 11 0
BBX 30 33 -11 -21
BITMAP
00000C00
00000800
00001800
00003000
00003F00
00007104
0000C188
0000C318
00018330
000386C0
00039F00
00067C00
000E0000
001C0000
00140000
00200000
00680000
00480000
00900000
01900000
01200000
02200000
06400000
04400000
08800000
18800000
31000000
22000000
66000000
44000000
C8000000
D0000000
E0000000
ENDCHAR
STARTCHAR ydieresis
ENCODING 255
SWIDTH 367 0
DWIDTH 18 0
BBX 28 35 -6 -21
BITMAP
00038000
0001E000
00003800
00000000
00000000
00030400
00060600
00060C10
000C1820
00181840
00183080
00186100
0018E200
000F4C00
0000D800
0001B000
00014000
00038000
000F0000
001C0000
002C0000
00580000
00980000
01300000
02200000
04600000
08C00000
11800000
13000000
22000000
44000000
4C000000
98000000
B0000000
C0000000
ENDCHAR
STARTCHAR dotlessi
ENCODING 305
SWIDTH 136 0
DWIDTH 7 0
BBX 10 9 4 0
BITMAP
0800
1800
3000
6040
6080
C100
8200
CC00
F000
ENDCHAR
STARTCHAR circumflex
ENCODING 710
SWIDTH 367 0
DWIDTH 18 0
BBX 6 3 2 11
BITMAP
70
D8
8C
ENDCHAR
STARTCHAR caron
ENCODING 711
SWIDTH 367 0
DWIDTH 18 0
BBX 5 3 2 10
BITMAP
88
D8
70
ENDCHAR
STARTCHAR breve
ENCODING 728
SWIDTH 367 0
DWIDTH 18 0
BBX 5 3 2 10
BITMAP
88
D8
70
ENDCHAR
STARTCHAR dotaccent
ENCODING 729
SWIDTH 367 0
DWIDTH 18 0
BBX 2 2 4 11
BITMAP
C0
C0
ENDCHAR
STARTCHAR ring
ENCODING 730
SWIDTH 420 0
DWIDTH 20 0
BBX 3 4 4 10
BITMAP
60
A0
A0
60
ENDCHAR
STARTCHAR ogonek
ENCODING 731
SWIDTH 367 0
DWIDTH 18 0
BBX 5 4 2 -4
BITMAP
78
40
C0
70
ENDCHAR
STARTCHAR tilde
ENCODING 732
SWIDTH 367 0
DWIDTH 18 0
BBX 6 2 2 11
BITMAP
C0
3C
ENDCHAR
STARTCHAR hungarumlaut
ENCODING 733
SWIDTH 97 0
DWIDTH 5 0
BBX 5 4 2 14
BITMAP
D8
D8
48
40
ENDCHAR
STARTCHAR mu
ENCODING 956
SWIDTH 255 0
DWIDTH 12 0
BBX 19 11 1 -3
BITMAP
030C00
060820
0C1800
0C3040
186080
386100
39A200
6F3C00
400000
C00000
800000
ENDCHAR
STARTCHAR quoteleft
ENCODING 8216
SWIDTH 134 0
DWIDTH 6 0
BBX 2 4 4 15
BITMAP
80
80
C0
C0
ENDCHAR
STARTCHAR quoteright
ENCODING 8217
SWIDTH 367 0
DWIDTH 18 0
BBX 2 5 13 13
BITMAP
C0
C0
40
40
80
ENDCHAR
STARTCHAR minus
ENCODING 8722
SWIDTH 488 0
DWIDTH 23 0
BBX 8 2 2 7
BITMAP
FF
FE
ENDCHAR
STARTCHAR .notdef
ENCODING -1
SWIDTH 500 0
DWIDTH 24 0
BBX 20 48 2 -22
BITMAP
FFFFF0
FFFFF0
E00070
E00070
E00070
E00070
E00070
E00070
E00070
E00070
E00070
E00070
E00070
E00070
E00070
E00070
E00070
E00070
E00070
E00070
E00070
E00070
E00070
E00070
E00070
E00070
E00070
E00070
E00070
E00070
E00070
E00070
E00070
E00070
E00070
E00070
E00070
E00070
E00070
E00070
E00070
E00070
E00070
E00070
E00070
FFFFF0
FFFFF0
FFFFF0
ENDCHAR
STARTCHAR f2
ENCODING -1
SWIDTH 313 0
DWIDTH 15 0
BBX 37 43 -10 -21
BITMAP
0000000018
0000000038
0000000068
00000000D8
0000000190
0000000320
0000000620
0000000C40
0000001880
0000003100
0000006200
0000006600
000000C800
0000019000
0000036000
0000078080
00000F0100
00001C0200
00007C0400
0003FC1800
003CF46000
00C1E78000
0001A00000
0003400000
0006400000
000C800000
0019800000
0031000000
0062000000
00C6000000
0184000000
0388000000
0310000000
0630000000
0C20000000
1840000000
3880000000
3100000000
6200000000
C400000000
C800000000
F000000000
E000000000
ENDCHAR
STARTCHAR t2
ENCODING -1
SWIDTH 190 0
DWIDTH 9 0
BBX 16 22 6 0
BITMAP
0002
0007
000E
001C
003C
0068
00D0
01B0
0360
02C0
0780
0E00
1C00
3800
3010
6020
C020
C040
8180
8300
C400
7800
ENDCHAR
STARTCHAR quotations
ENCODING -1
SWIDTH 60 0
DWIDTH 3 0
BBX 5 4 2 15
BITMAP
90
90
D8
D8
ENDCHAR
STARTCHAR r2
ENCODING -1
SWIDTH 190 0
DWIDTH 9 0
BBX 18 9 0 0
BITMAP
072000
07E000
048040
050080
0B0100
120200
220400
431800
81E000
ENDCHAR
STARTCHAR t3
ENCODING -1
SWIDTH 196 0
DWIDTH 9 0
BBX 36 22 6 0
BITMAP
0003000000
0007000000
000E000000
001E000000
003C000010
00780000C0
3CD0000700
01FF9FF000
0360000000
06C0000000
0580000000
0E00000000
1C00000000
1800000000
3010000000
6030000000
4020000000
C040000000
8080000000
8300000000
C400000000
7800000000
ENDCHAR
STARTCHAR em
ENCODING -1
SWIDTH 877 0
DWIDTH 42 0
BBX 27 1 14 6
BITMAP
FFFFFFE0
ENDCHAR
STARTCHAR en
ENCODING -1
SWIDTH 606 0
DWIDTH 29 0
BBX 19 1 3 5
BITMAP
FFFFE0
ENDCHAR
STARTCHAR quotations2
ENCODING -1
SWIDTH 213 0
DWIDTH 10 0
BBX 5 5 6 15
BITMAP
48
F8
68
08
40
ENDCHAR
STARTCHAR '
ENCODING -1
SWIDTH 252 0
DWIDTH 12 0
BBX 2 4 15 14
BITMAP
40
C0
40
40
ENDCHAR
ENDFONT
